<?xml version="1.0" encoding="UTF-8"?>
<!DOCTYPE svg PUBLIC "-//W3C//DTD SVG 1.1//EN" "http://www.w3.org/Graphics/SVG/1.1/DTD/svg11.dtd">
<!-- Creator: CorelDRAW X7 -->
<svg xmlns="http://www.w3.org/2000/svg" xml:space="preserve" width="532.391mm" height="146.259mm" version="1.1" style="shape-rendering:geometricPrecision; text-rendering:geometricPrecision; image-rendering:optimizeQuality; fill-rule:evenodd; clip-rule:evenodd"
viewBox="0 0 11788 3238"
 xmlns:xlink="http://www.w3.org/1999/xlink">
 <defs>
  <style type="text/css">
   <![CDATA[
    .fil0 {fill:url(#id0)}
    .fil1 {fill:url(#id1);fill-rule:nonzero}
   ]]>
  </style>
  <linearGradient id="id0" gradientUnits="userSpaceOnUse" x1="-84.3168" y1="3315.15" x2="2758.56" y2="-375.998">
   <stop offset="0" style="stop-opacity:1; stop-color:#5340FF"/>
   <stop offset="1" style="stop-opacity:1; stop-color:#F237A0"/>
  </linearGradient>
  <linearGradient id="id1" gradientUnits="userSpaceOnUse" xlink:href="#id0" x1="6765.91" y1="4093.83" x2="7826.35" y2="-564.747">
  </linearGradient>
 </defs>
 <g id="Layer_x0020_1">
  <metadata id="CorelCorpID_0Corel-Layer"/>
  <path class="fil0" d="M792 0l1042 0c603,0 1096,493 1096,1096l0 0c0,603 -493,1096 -1096,1096l-718 0 -1032 1032c-14,14 -35,18 -54,10 -18,-7 -30,-25 -30,-45l0 -997 0 -1400 792 -792zm797 321l0 499 354 -353 175 176 -353 353 500 0 0 249 -500 0 353 353 -175 175 -354 -353 0 500 -248 0 0 -500 -353 353 -176 -175 353 -353 -499 0 0 -249 499 0 -353 -353 176 -176 353 353 0 -499 248 0z"/>
  <path class="fil1" d="M3579 1718l0 -1178 508 0c131,0 233,26 305,79 73,53 109,127 109,224 0,64 -15,118 -45,161 -30,44 -70,77 -121,100 -51,22 -107,33 -167,33l28 -40c75,0 140,11 195,34 54,23 96,58 127,103 30,46 45,102 45,169 0,100 -37,177 -110,232 -74,55 -184,83 -333,83l-541 0zm124 -103l416 0c103,0 182,-17 237,-53 55,-35 82,-91 82,-169 0,-76 -27,-132 -82,-167 -55,-36 -134,-53 -237,-53l-429 0 0 -103 388 0c95,0 168,-18 220,-54 52,-36 78,-89 78,-160 0,-71 -26,-125 -78,-160 -52,-36 -125,-53 -220,-53l-375 0 0 972zm1188 103l0 -1178 441 0c149,0 267,36 353,107 86,71 128,170 128,297 0,83 -19,154 -58,214 -38,60 -94,106 -165,138 -72,32 -158,48 -258,48l-372 0 56 -57 0 431 -125 0zm805 0l-303 -428 134 0 305 428 -136 0zm-680 -421l-56 -59 369 0c118,0 207,-25 268,-77 61,-52 92,-124 92,-217 0,-94 -31,-167 -92,-219 -61,-51 -150,-77 -268,-77l-369 0 56 -59 0 708zm948 421l538 -1178 123 0 538 1178 -131 0 -495 -1106 51 0 -495 1106 -129 0zm212 -315l37 -101 684 0 37 101 -758 0zm1226 315l0 -1178 125 0 0 1178 -125 0zm553 0l0 -1178 102 0 813 1023 -54 0 0 -1023 123 0 0 1178 -103 0 -811 -1023 54 0 0 1023 -124 0zm-4428 1500l0 -1178 509 0c106,0 197,17 273,52 76,34 135,83 177,147 41,64 62,140 62,229 0,87 -21,163 -62,227 -42,64 -101,113 -177,147 -76,34 -167,51 -273,51l-358 0 121 -122 0 447 -272 0zm272 -417l-121 -130 343 0c84,0 147,-18 189,-54 41,-35 62,-85 62,-149 0,-65 -21,-116 -62,-152 -42,-36 -105,-54 -189,-54l-343 0 121 -129 0 668zm990 417l0 -1178 503 0c164,0 291,38 382,114 91,76 136,180 136,314 0,87 -20,163 -62,226 -41,63 -100,112 -177,146 -76,33 -167,50 -272,50l-359 0 122 -119 0 447 -273 0zm749 0l-295 -427 291 0 298 427 -294 0zm-476 -417l-122 -128 344 0c84,0 147,-18 188,-55 42,-36 62,-86 62,-150 0,-65 -20,-116 -62,-152 -41,-36 -104,-54 -188,-54l-344 0 122 -129 0 668zm1583 437c-93,0 -179,-15 -258,-45 -79,-30 -147,-73 -205,-128 -58,-55 -103,-119 -135,-194 -32,-74 -48,-154 -48,-242 0,-87 16,-168 48,-242 32,-74 77,-139 136,-194 58,-55 126,-97 205,-127 78,-31 164,-46 256,-46 93,0 178,15 256,46 78,30 146,72 204,127 58,55 103,120 135,193 33,74 49,155 49,243 0,88 -16,169 -49,243 -32,75 -77,139 -135,194 -58,54 -126,97 -204,127 -78,30 -163,45 -255,45zm-1 -232c52,0 101,-9 145,-27 44,-18 83,-44 117,-77 34,-34 60,-74 78,-120 19,-46 28,-97 28,-153 0,-56 -9,-107 -28,-153 -18,-46 -44,-86 -77,-119 -33,-34 -72,-60 -117,-78 -45,-18 -94,-27 -146,-27 -53,0 -102,9 -146,27 -44,18 -83,44 -117,78 -33,33 -60,73 -78,119 -19,46 -28,97 -28,153 0,55 9,106 28,152 18,47 44,87 77,121 33,33 72,59 117,77 45,18 94,27 147,27zm1089 232c-80,0 -153,-15 -220,-44 -67,-30 -121,-72 -164,-127l152 -182c32,43 66,75 102,97 36,22 75,33 116,33 111,0 167,-66 167,-196l0 -560 -414 0 0 -219 685 0 0 764c0,146 -36,255 -108,327 -72,71 -177,107 -316,107zm741 -20l0 -1178 890 0 0 219 -619 0 0 740 641 0 0 219 -912 0zm250 -491l0 -212 567 0 0 212 -567 0zm1490 511c-91,0 -175,-15 -253,-44 -78,-30 -146,-72 -203,-127 -57,-55 -102,-120 -134,-194 -32,-74 -48,-155 -48,-244 0,-88 16,-170 48,-244 32,-74 77,-138 135,-193 58,-55 125,-98 203,-127 77,-30 162,-45 254,-45 102,0 194,18 276,53 83,35 152,87 208,156l-175 161c-40,-46 -85,-80 -134,-103 -50,-23 -104,-35 -162,-35 -55,0 -105,9 -151,27 -46,18 -86,44 -120,78 -34,33 -60,73 -78,119 -19,46 -28,97 -28,153 0,56 9,107 28,153 18,46 44,86 78,120 34,33 74,59 120,77 46,18 96,27 151,27 58,0 112,-11 162,-34 49,-23 94,-58 134,-106l175 162c-56,68 -125,121 -208,156 -82,36 -175,54 -278,54zm924 -20l0 -956 -377 0 0 -222 1027 0 0 222 -377 0 0 956 -273 0z"/>
 </g>
</svg>
